<svg width="150" height="79" viewBox="0 0 150 79" fill="none" xmlns="http://www.w3.org/2000/svg">
<g filter="url(#filter0_d)">
<path d="M144 0H6L65.51 65.68C70.73 71.441 79.27 71.441 84.49 65.68L144 0Z" fill="#81B3D3"/>
<path d="M144 0H6L65.51 65.68C70.73 71.441 79.27 71.441 84.49 65.68L144 0Z" stroke="black"/>
</g>
<path d="M42.687 0.457L74.835 38.336L106.855 0.686L42.687 0.457Z" fill="#23A9E1"/>
<path fill-rule="evenodd" clip-rule="evenodd" d="M84.42 14.719H67.1C66.8194 14.5918 66.4384 14.4492 66.012 14.2896C63.8142 13.467 60.4115 12.1934 63.347 10.252C64.8166 9.31859 65.8717 9.46836 66.869 9.60993C67.9583 9.76457 68.9786 9.90941 70.395 8.622C72.9745 6.28128 76.6699 9.9095 77.9353 11.1519C78.196 11.4079 78.3536 11.5626 78.377 11.543C79.6265 10.5022 81.6307 12.3043 83.1108 13.6352C83.6301 14.1022 84.0849 14.5112 84.42 14.719ZM93.83 11.241L83.97 11.295C87.866 6.795 89.617 7.277 93.83 11.241Z" fill="white"/>
<path fill-rule="evenodd" clip-rule="evenodd" d="M42 0.0010088H77.0583L112 0V15.1724L77.0594 54.7226L76.8261 55L42 14.7114V0.0010088ZM46.011 1.153V3.06L44.407 1.154L46.011 1.153ZM103.622 1.154V3.588L105.702 1.154H103.622ZM54.467 13.081L54.377 12.998L55.1963 13.9714L55.196 13.972L74.834 37.302L55.1963 13.9714C57.8513 9.42894 61.6532 8.74921 65.743 13.664C66.397 14.4815 66.7938 15.2248 67.112 15.8208C67.5626 16.6649 67.8556 17.2137 68.498 17.26C69.6367 17.3414 70.1967 16.5858 70.7536 15.8344C71.1958 15.2376 71.6362 14.6434 72.363 14.473C73.7842 14.139 74.4388 14.4977 75.0817 14.85C75.2856 14.9618 75.4884 15.0729 75.714 15.161C75.9962 15.2714 76.2599 15.3412 76.504 15.4058C77.131 15.5718 77.6286 15.7035 77.977 16.401C78.0931 16.633 78.1901 16.8652 78.2848 17.092C78.7047 18.0974 79.0797 18.9953 80.879 19.294C83.4273 19.718 85.5817 18.7657 87.8233 17.7747C89.4303 17.0644 91.0821 16.3342 92.956 16.077L95.471 13.132C95.366 13.022 93.004 10.592 89.339 8.182C85.91 5.927 80.611 3.233 74.833 3.205C69.042 3.173 63.817 5.858 60.45 8.117C56.9069 10.4943 54.6345 12.9034 54.4757 13.0718L54.467 13.081ZM103.114 1.153H99.887V7.96L103.114 4.183V1.153ZM95.832 12.61V1.154H99.378V8.558L95.878 12.656C95.8632 12.6402 95.8478 12.6248 95.832 12.61ZM95.324 12.115V2.221L91.767 9.129C93.0081 10.0564 94.1956 11.0533 95.324 12.115ZM91.159 1.863V8.682C90.696 8.348 90.209 8.009 89.694 7.67C89.03 7.232 88.294 6.778 87.5 6.33L91.159 1.863ZM86.847 5.97V1.73L83.727 4.496C84.7921 4.9323 85.8336 5.42431 86.847 5.97ZM87.355 1.154H91.082L87.355 5.704V1.154ZM95.3 1.154H91.667L91.666 8.214L95.3 1.154ZM82.87 1.154H86.73L83.2 4.282C83.1346 4.2568 83.0681 4.23268 83.0016 4.20856L83.0015 4.20851C82.9572 4.19245 82.913 4.17638 82.869 4.16V1.154H82.87ZM82.361 3.974V1.571L79.261 3.087C80.3117 3.31806 81.3471 3.6143 82.361 3.974ZM78.158 1.613V2.873C77.4364 2.75191 76.7092 2.6678 75.979 2.621L78.158 1.613ZM73.64 2.616L71.392 1.574V2.869C72.128 2.746 72.878 2.659 73.64 2.616ZM67.272 1.571L70.337 3.069C69.277 3.298 68.254 3.597 67.271 3.944L67.272 1.571ZM67.578 1.154L70.882 2.771L70.883 1.154H67.578ZM74.448 2.429L71.694 1.154H74.448V2.429ZM77.938 1.154H75.057V2.488L77.938 1.154ZM78.816 1.154H82.056L78.816 2.738V1.154ZM62.895 1.155L66.405 4.265L66.764 4.13V1.155H62.895ZM62.787 1.738L65.88 4.479C64.8227 4.91873 63.7902 5.4158 62.787 5.968V1.738ZM62.115 6.346L58.475 1.866V8.756C59.6383 7.87955 60.8539 7.07473 62.115 6.346ZM54.31 2.224L57.896 9.198C56.6354 10.1717 55.4377 11.2241 54.31 12.349V2.224ZM54.332 1.154L57.966 8.224V1.154H54.332ZM62.278 5.739L58.552 1.154H62.278V5.739ZM46.52 3.664L49.747 7.497V1.154H46.52V3.664ZM50.255 1.154H53.8V12.314L50.254 8.102L50.255 1.154Z" fill="#491213"/>
<path d="M72.227 46.026L74.837 41.806L77.435 46.026L74.837 50.256L72.227 46.026Z" fill="#23A9E1"/>
<path fill-rule="evenodd" clip-rule="evenodd" d="M58.88 11.718C57.097 12.272 55.999 14.73 58.623 14.839H58.624C58.516 13.171 58.99 12.465 59.136 14.491C59.5687 14.471 60.0179 14.4591 60.4747 14.4469C62.1166 14.4034 63.8555 14.3572 65.27 13.923C64.13 12.832 60.575 11.19 58.88 11.718ZM64.793 22.985C59.197 22.939 62.98 14.337 64.884 14.857C67.074 15.553 66.828 23.051 64.793 22.985ZM67.333 20.13C67.223 22.102 68.211 21.799 68.756 20.175V20.174C68.7593 20.5328 68.7199 20.8944 68.6814 21.2468C68.5793 22.1831 68.4841 23.0555 69.215 23.644C70.539 24.713 73.08 23.247 73.911 22.152C72.314 21.532 74.259 17.765 75.457 17.191C74.225 19.772 72.805 23.617 76.025 23.617C74.393 23.617 77.327 16.871 77.343 16.925C77.1569 16.3081 76.6943 16.2415 76.1421 16.162C75.7329 16.1032 75.2746 16.0372 74.843 15.735C73.2609 14.6278 72.4343 15.5809 71.6311 16.507C71.2809 16.9108 70.9351 17.3095 70.533 17.53C70.0529 17.7928 69.5826 17.9267 69.1565 18.048C68.1706 18.3288 67.421 18.5422 67.333 20.13ZM80.218 30.556C76.785 28.536 77.654 27.033 80.448 25.631C80.8082 25.4501 81.2795 25.1532 81.806 24.8216C83.4161 23.8072 85.5418 22.4681 86.581 23.132L80.218 30.556ZM76.6742 33.0045L76.6739 33.0045C74.9673 32.8993 73.1802 32.7893 71.622 33.128C72.829 33.43 75.773 34.293 73.032 35.022C74.015 36.429 75.61 36.339 76.656 35.104C76.4001 34.9781 76.2149 34.8349 76.0312 34.6928L76.0311 34.6928C75.9098 34.5989 75.789 34.5055 75.649 34.418C76.734 34.222 77.749 33.596 77.884 33.073C77.4882 33.0546 77.0835 33.0297 76.6742 33.0045ZM76.373 31.499C77.242 30.659 78.186 30.703 79.119 31.499H79.118C78.644 32.881 70.059 32.393 68.994 29.779C69.5184 29.8582 70.2011 29.8662 70.9431 29.8748C73.0017 29.8989 75.5167 29.9282 76.373 31.499ZM72.345 29.348C71.8943 29.2083 71.136 29.1189 70.367 29.0283C68.4656 28.8041 66.4991 28.5722 68.957 27.554C70.022 27.113 75.55 27.617 72.345 29.348ZM74.257 26.318C73.78 25.241 74.622 23.958 75.997 24.89C77.196 25.703 75.445 26.907 74.257 26.318ZM71.421 26.409C69.156 27.088 66.148 25.625 69.791 24.889C72.052 24.433 74.457 25.395 71.421 26.409Z" fill="#DC6243"/>
<path d="M77.774 25.832C74.866 22.845 82.116 23.12 83.284 22.069C84.134 22.353 90.274 16.692 91.769 17.044C90.695 18.304 88.381 22.326 86.722 22.326C85.447 22.326 84.157 22.136 83.17 23.044C81.726 24.374 79.333 25.05 77.774 25.832Z" fill="#F49774"/>
<path d="M78.727 22.18C77.135 23.036 75.629 19.644 78.378 19.974C80.204 20.194 82.054 19.82 83.798 20.121C82.547 21.608 80.742 22.427 78.727 22.18Z" fill="#F4B1A4"/>
<path fill-rule="evenodd" clip-rule="evenodd" d="M45.265 14.483C45.626 15.702 46.849 16.149 47.996 15.809C48.0322 15.8493 48.0549 15.9116 48.0762 15.9699L48.0762 15.9699C48.086 15.997 48.0956 16.0232 48.106 16.046C48.0064 16.0843 47.8223 16.1636 47.6023 16.2585L47.6022 16.2585L47.6022 16.2585L47.6022 16.2585L47.6022 16.2585C46.9896 16.5225 46.0981 16.9066 45.973 16.861C45.7561 16.4283 45.4148 16.1086 45.0713 15.7869C44.8321 15.5628 44.5919 15.3378 44.392 15.073C43.826 14.325 43.495 13.422 43.584 12.476C43.726 10.731 45.482 8.807 47.346 9.071C48.266 9.204 49.034 9.858 49.606 10.554C49.7685 10.7433 49.9097 10.9418 50.0491 11.1377C50.3457 11.5544 50.6337 11.9591 51.099 12.238C50.541 12.95 49.983 13.66 49.423 14.371C49.0925 14.2249 49.193 13.997 49.3028 13.7479C49.3336 13.6781 49.3651 13.6067 49.388 13.535C49.551 13.018 49.673 12.43 49.449 11.91C48.939 10.736 47.544 10.696 46.609 11.366C45.663 12.044 44.912 13.292 45.265 14.483ZM53.69 16.404C53.8067 16.3788 53.8955 16.4207 53.9743 16.458C54.0894 16.5123 54.1833 16.5567 54.312 16.368L52.722 14.474C52.481 14.187 52.176 13.879 52.263 14.486C52.321 14.895 48.294 18.163 48.048 18.264C47.9132 18.3197 47.8026 18.2758 47.7018 18.2359C47.571 18.1841 47.4568 18.1388 47.328 18.327C47.5289 18.5655 47.7294 18.8042 47.9299 19.0429L47.9303 19.0433L47.9317 19.0451L47.9323 19.0457L47.9331 19.0467L47.9332 19.0468L47.9333 19.0469L47.9334 19.0471L47.9335 19.0472L47.9337 19.0473L47.9338 19.0475L47.9339 19.0476L47.9343 19.0481L47.9344 19.0483L47.9345 19.0484L47.9346 19.0485L47.9348 19.0487L47.9349 19.0488C48.2069 19.3726 48.479 19.6965 48.752 20.02C48.8035 20.0812 48.8539 20.1441 48.9044 20.2072C49.0108 20.3401 49.1177 20.4737 49.237 20.593C49.4258 20.7818 49.39 20.3246 49.3823 20.2273L49.3823 20.2272L49.3823 20.2272C49.3811 20.2112 49.3806 20.2049 49.382 20.213C49.3286 19.9168 49.6408 19.6601 49.8604 19.4796L49.8604 19.4796C49.8877 19.4572 49.9135 19.436 49.937 19.416C50.941 18.532 53.442 16.437 53.69 16.404ZM57.113 20.935C57.446 21.336 57.691 21.769 57.636 22.309C57.6231 22.4367 57.5485 22.5942 57.4729 22.7539C57.3265 23.063 57.1762 23.3804 57.461 23.507L58.916 21.667C58.526 21.569 55.434 17.871 55.384 17.466L53.333 18.592C53.403 18.8751 53.7464 18.7859 54.0762 18.7002C54.2462 18.656 54.4125 18.6128 54.536 18.622C55.074 18.66 55.462 18.985 55.804 19.369C55.6985 19.4576 55.5786 19.5584 55.4479 19.6684L55.4436 19.672L55.4431 19.6724L55.443 19.6725L55.4429 19.6725C54.1852 20.7305 51.9265 22.6306 51.666 22.674C51.6181 22.6816 51.5255 22.6421 51.4224 22.5982C51.2117 22.5083 50.9574 22.3999 50.952 22.637C50.9491 22.7623 51.2509 23.0609 51.4523 23.2601L51.4523 23.2601L51.4524 23.2602C51.5242 23.3312 51.5832 23.3896 51.611 23.423L53.058 25.145C53.2779 25.0447 53.235 24.9115 53.1852 24.757C53.1441 24.6297 53.0984 24.4879 53.191 24.338C53.3101 24.145 55.2458 22.5119 56.409 21.5306L56.4091 21.5305C56.7107 21.276 56.9604 21.0654 57.113 20.935ZM70.9615 36.5156L70.9615 36.5156L70.9614 36.5154C70.7668 36.2637 70.6168 36.0697 70.539 35.977L70.326 35.724C70.319 35.714 70.141 35.869 70.166 35.848C70.1126 35.8928 70.1297 35.9795 70.1492 36.0783C70.1705 36.1867 70.1948 36.3097 70.132 36.408C69.617 37.214 66.394 39.644 66.227 39.76C66.0532 39.8807 65.871 39.8608 65.7053 39.8428C65.5278 39.8235 65.3692 39.8062 65.26 39.966C65.3991 40.131 65.6154 40.4017 65.8547 40.7012L65.8548 40.7012C66.419 41.4073 67.1112 42.2734 67.22 42.291C67.437 42.3259 67.3979 42.0542 67.3681 41.8463C67.3551 41.7561 67.3439 41.678 67.356 41.642C67.4312 41.4165 68.8751 40.2125 69.5418 39.6566L69.66 39.558C69.8457 39.4021 70.0394 39.7121 70.1731 39.9261L70.1731 39.9261C70.1963 39.9633 70.2178 39.9976 70.237 40.026C70.449 40.341 70.544 40.676 70.43 41.045C70.4077 41.1163 70.3576 41.198 70.3061 41.2819C70.1844 41.4802 70.0551 41.691 70.268 41.807C70.4389 41.6072 70.7415 41.2542 71.0455 40.8996L71.052 40.8919L71.0552 40.8882L71.06 40.8827C71.4663 40.4087 71.8714 39.9361 71.964 39.827C72.0849 39.6869 71.8281 39.7409 71.71 39.7657L71.71 39.7657L71.7099 39.7657C71.6679 39.7745 71.6435 39.7797 71.66 39.771C71.42 39.895 71.194 39.924 70.97 39.753C70.907 39.706 70.263 39.051 70.327 38.996C70.3925 38.941 70.4615 38.8775 70.5334 38.8114C70.7685 38.595 71.0345 38.3502 71.311 38.282C71.871 38.144 72.338 39.266 72.421 39.664C72.499 40.039 72.488 40.434 72.371 40.8C72.3509 40.8631 72.321 40.9229 72.2926 40.9797C72.208 41.1489 72.1374 41.2902 72.383 41.404L73.766 39.508C73.6757 39.5126 73.586 39.4907 73.508 39.445C72.9243 39.0551 71.6574 37.416 70.9615 36.5156ZM62.304 31.317C62.8592 30.8446 63.5533 30.5662 64.281 30.524C65.439 30.458 66.613 30.988 67.371 31.998C68.483 33.482 68.301 35.559 66.871 36.764C65.186 37.965 63.104 37.772 61.812 36.07C60.688 34.592 60.874 32.52 62.304 31.317ZM65.471 31.91C66.42 31.802 66.974 32.709 66.57 33.678C66.15 34.658 65.14 35.667 64.146 36.058C62.966 36.523 62.135 35.521 62.615 34.401C63.037 33.417 64.045 32.418 65.041 32.021C65.191 31.962 65.335 31.926 65.471 31.911V31.91ZM62.9743 27.3709C62.8816 27.3321 62.7855 27.292 62.688 27.28V27.279C61.9923 27.1958 61.2092 27.3412 60.4705 27.4784L60.4704 27.4784C60.1877 27.5309 59.9114 27.5822 59.649 27.619C59.002 27.71 57.477 29.195 57.379 29.475C57.3685 29.5138 57.3897 29.6015 57.414 29.7024C57.4687 29.929 57.5395 30.2225 57.305 30.181C57.2258 30.1662 57.0359 29.9081 56.9094 29.7361L56.9093 29.736L56.9092 29.7359C56.8649 29.6756 56.8283 29.6259 56.807 29.601L55.19 27.681C55.3333 27.4781 55.4542 27.5471 55.5938 27.6268C55.7046 27.69 55.8271 27.76 55.982 27.706C56.2482 27.6126 57.1602 26.8353 57.5918 26.4675L57.5922 26.4671L57.5944 26.4652C57.6513 26.4168 57.6997 26.3755 57.737 26.344C58.2908 25.8782 58.7777 24.171 58.9369 23.6127C58.9623 23.5238 58.9793 23.464 58.987 23.443C59.048 23.273 59.069 22.298 59.045 22.318C59.2556 22.1443 59.4 22.3575 59.5464 22.5735C59.5905 22.6386 59.6347 22.7039 59.681 22.759L61.461 24.871C61.3288 25.0609 61.2068 25.0053 61.072 24.944C60.9428 24.8852 60.8018 24.821 60.629 24.963C60.4704 25.0939 60.0892 26.1921 59.9162 26.6903L59.877 26.803C59.9153 26.7962 59.9636 26.788 60.0199 26.7784L60.02 26.7784C60.5525 26.6876 61.7961 26.4755 61.939 26.225C62.0064 26.1066 61.967 26.0054 61.9317 25.9146C61.8853 25.7952 61.8458 25.6938 62.065 25.595L63.512 27.307C63.3596 27.5318 63.1746 27.4545 62.9743 27.3709ZM86.927 34.049C87.051 34.47 87.121 34.914 87.067 35.354C86.997 35.92 86.431 37.252 85.656 36.873C85.1216 36.6107 84.6342 36.1625 84.1677 35.7336C83.9707 35.5525 83.7775 35.3748 83.586 35.216C84.106 34.608 84.564 34.081 85.439 34.376C85.679 34.456 85.885 34.352 85.633 34.206C85.5831 34.1769 85.4791 34.1129 85.3429 34.0289C84.7618 33.6707 83.593 32.9503 83.516 33.037C83.4365 33.1288 83.5001 33.2537 83.5744 33.3995C83.6636 33.5745 83.7681 33.7796 83.659 33.994C83.5442 34.2189 83.3693 34.4198 83.199 34.6153C83.1498 34.6718 83.1009 34.7279 83.054 34.784C82.9858 34.7264 82.9108 34.6683 82.8343 34.609L82.8341 34.6089L82.834 34.6087C82.3872 34.2624 81.8884 33.8757 82.369 33.32C82.721 32.892 83.18 32.56 83.73 32.45C83.8595 32.4236 84.0457 32.447 84.2374 32.471C84.5907 32.5153 84.9627 32.562 85.032 32.304C84.609 32.1 84.186 31.8971 83.763 31.6942C83.481 31.5589 83.199 31.4236 82.917 31.288C83.0094 31.7056 81.5517 33.3469 80.711 34.2935C80.505 34.5255 80.336 34.7157 80.236 34.836C80.2166 34.859 80.1781 34.8971 80.1317 34.943C80.001 35.0721 79.808 35.263 79.805 35.353C79.7996 35.6048 80.1345 35.4514 80.2156 35.4142L80.2157 35.4142C80.2241 35.4104 80.2298 35.4078 80.232 35.407C80.547 35.291 84.656 38.724 84.758 38.959C84.7887 39.045 84.7582 39.1331 84.7306 39.2128C84.6998 39.3017 84.6726 39.3802 84.738 39.434C84.732 39.428 84.886 39.574 84.903 39.554C84.9454 39.5031 85.0561 39.3602 85.2135 39.1569L85.2135 39.1569L85.2136 39.1568C85.9956 38.1472 87.9317 35.6478 88.392 35.518C87.875 34.7304 87.3627 33.9397 86.855 33.146C86.5683 33.2718 86.7035 33.5544 86.8253 33.809C86.8662 33.8945 86.9056 33.9768 86.927 34.049ZM79.2113 39.2409C79.9324 38.7948 81.7731 37.6562 82.927 38.401C84.059 39.343 83.812 40.881 83.059 41.981C82.698 42.506 82.242 42.945 81.765 43.364L81.7338 43.3902C81.3836 43.6836 81.1251 43.9001 81.059 44.379L78.799 42.732C78.9116 42.4365 79.1371 42.5631 79.3597 42.688C79.4415 42.7339 79.5228 42.7796 79.598 42.804C79.989 42.933 80.414 42.969 80.814 42.863C81.498 42.681 82.191 42.04 82.374 41.344C82.602 40.479 81.753 40.217 81.107 40.52C80.796 40.6659 80.4992 40.8614 80.2066 41.0541C80.0899 41.131 79.974 41.2073 79.858 41.28C79.205 41.687 78.437 41.995 77.7 41.611C77.052 41.275 76.611 40.621 76.611 39.885C76.611 39.088 77.064 38.39 77.598 37.835C77.7222 37.7064 77.8723 37.5799 78.0268 37.4497C78.4297 37.1102 78.8629 36.7451 78.946 36.25C79.501 36.626 80.056 37.001 80.613 37.376C80.7051 37.4389 80.6888 37.46 80.6383 37.5256L80.6383 37.5257C80.623 37.5456 80.6045 37.5695 80.585 37.6C80.5378 37.6738 80.2147 37.6375 79.9506 37.6079L79.9505 37.6079C79.8174 37.5929 79.6993 37.5796 79.639 37.583C79.043 37.619 78.443 37.88 78.139 38.42C77.789 39.042 78.276 39.714 78.951 39.395C79.0004 39.3714 79.09 39.316 79.2113 39.2409ZM100.544 10.336C100.509 10.352 100.479 10.3768 100.456 10.408L99.666 11.358L98.852 12.34C98.824 12.3741 98.7956 12.405 98.7692 12.4337L98.7691 12.4338C98.6376 12.577 98.5572 12.6646 98.827 12.807C99.37 12.535 102.345 17.575 102.079 18.299C101.609 18.543 97.589 15.016 97.481 14.783C97.4717 14.7561 97.4819 14.6911 97.4943 14.613C97.5255 14.4159 97.5699 14.1349 97.345 14.17C97.2346 14.187 97.0221 14.4988 96.8812 14.7056L96.8812 14.7057C96.8319 14.778 96.7914 14.8375 96.767 14.867L96.19 15.562C96.3209 15.7528 96.4165 15.7077 96.5354 15.6515C96.6127 15.615 96.6999 15.5738 96.813 15.59C97.0412 15.6358 97.8571 16.3231 98.1906 16.604L98.269 16.67C98.1125 16.6757 97.8669 16.6871 97.6029 16.6994C97.0743 16.724 96.4721 16.752 96.364 16.744C96.0282 16.7858 95.987 16.6382 95.9405 16.4717C95.9059 16.3477 95.8684 16.2133 95.704 16.139L94.226 17.934L93.366 18.977C93.3619 18.982 93.3583 18.986 93.3553 18.9895C93.3476 18.9982 93.3438 19.0025 93.3443 19.0063C93.3447 19.0101 93.3494 19.0134 93.3588 19.0198C93.3675 19.0258 93.3801 19.0346 93.397 19.049C93.4271 19.0737 93.45 19.0937 93.4682 19.1094C93.5079 19.1439 93.5242 19.1581 93.5406 19.1581C93.5521 19.158 93.5636 19.151 93.5831 19.1389C93.6139 19.1199 93.6647 19.0886 93.767 19.053C94.095 18.938 98.023 22.253 98.165 22.422C98.2768 22.5552 98.2658 22.6986 98.2557 22.8303C98.2436 22.9874 98.2329 23.128 98.433 23.215L99.601 21.797C99.6136 21.7817 99.6249 21.7699 99.6342 21.7602C99.6687 21.7244 99.6754 21.7174 99.614 21.667C99.4611 21.5411 99.3828 21.5963 99.286 21.6646C99.2075 21.72 99.1167 21.784 98.964 21.767C98.6647 21.7177 96.7465 20.1176 95.6045 19.165C95.4264 19.0165 95.2673 18.8837 95.136 18.775L100.458 18.578C100.653 18.571 101.198 19.159 101.153 19.368C101.137 19.4427 101.103 19.5055 101.072 19.5611C101.003 19.6871 100.955 19.7761 101.187 19.883C101.31 19.7347 101.437 19.5867 101.563 19.4384L101.563 19.4383C101.755 19.2128 101.948 18.9867 102.132 18.758L102.28 18.574C102.338 18.5279 102.384 18.469 102.415 18.402L102.525 18.265C102.552 18.234 102.585 18.1965 102.623 18.1539C102.967 17.7646 103.683 16.9528 103.587 16.869C103.447 16.7477 103.341 16.8053 103.226 16.8671C103.096 16.9377 102.955 17.0138 102.743 16.834C102.538 16.6867 102.05 15.8484 101.857 15.5155L101.808 15.432C101.655 15.1715 102.089 14.9117 102.348 14.7565C102.379 14.7378 102.408 14.7205 102.433 14.705C102.937 14.392 104.54 13.938 104.693 14.932C104.704 15.004 104.672 15.0803 104.643 15.1518C104.604 15.2461 104.569 15.3321 104.638 15.389C104.643 15.3935 104.651 15.402 104.661 15.4123C104.704 15.4564 104.779 15.5353 104.814 15.494L106.956 12.918C106.936 12.9011 106.915 12.8799 106.893 12.858C106.847 12.8115 106.797 12.7617 106.746 12.742C106.272 13.215 101.28 11.222 100.916 10.947C100.84 10.9167 100.793 10.7721 100.747 10.6306C100.694 10.4644 100.641 10.3025 100.544 10.336ZM102.606 13.849C101.845 13.527 101.083 13.207 100.319 12.889L101.335 14.637C101.524 14.4503 101.732 14.2843 101.956 14.142H101.958C102.159 14.015 102.376 13.913 102.606 13.849ZM93.731 20.642C92.624 20.566 91.501 21.052 90.708 21.959C89.473 23.459 89.596 25.637 91.101 26.904C92.619 28.154 94.781 27.836 96.017 26.354C97.249 24.858 97.164 22.674 95.632 21.42C95.0974 20.9654 94.4319 20.6928 93.732 20.642H93.731ZM94.024 22.904C93.592 22.615 92.904 22.239 92.282 22.201C91.909 22.178 91.559 22.278 91.302 22.592C90.487 23.588 91.764 24.718 92.509 25.256C93.253 25.793 94.633 26.57 95.433 25.73C95.4395 25.7245 95.4455 25.7185 95.451 25.712C95.584 25.545 95.549 25.584 95.501 25.642C96.238 24.591 94.804 23.425 94.024 22.904ZM89.155 26.481C87.941 26.414 85.856 28.057 85.856 28.057C85.214 28.828 83.934 30.373 83.934 30.373C83.934 30.373 84.429 30.295 84.761 30.486C85.044 30.649 88.814 33.798 88.876 33.971C88.9225 34.1012 88.8965 34.1856 88.8745 34.2573C88.8463 34.3491 88.8245 34.4199 88.97 34.539C89.081 34.632 91.914 31.134 92.173 30.519C92.621 29.38 92.264 28.132 91.353 27.344C91.426 27.404 91.53 27.489 91.311 27.307C90.621 26.789 89.884 26.52 89.155 26.48V26.481ZM88.368 28.098C88.286 28.077 88.197 28.064 88.102 28.061V28.06C87.441 28.035 86.52 28.418 86.045 28.939C85.886 29.114 89.867 32.338 90.065 32.148C90.2477 31.9726 90.3215 31.9091 90.3621 31.8742C90.411 31.8321 90.4117 31.8315 90.497 31.726C91.752 30.213 89.79 28.461 88.368 28.098Z" fill="white"/>
<defs>
<filter id="filter0_d" x="0.872253" y="-0.5" width="148.255" height="79.0007" filterUnits="userSpaceOnUse" color-interpolation-filters="sRGB">
<feFlood flood-opacity="0" result="BackgroundImageFix"/>
<feColorMatrix in="SourceAlpha" type="matrix" values="0 0 0 0 0 0 0 0 0 0 0 0 0 0 0 0 0 0 127 0"/>
<feOffset dy="4"/>
<feGaussianBlur stdDeviation="2"/>
<feColorMatrix type="matrix" values="0 0 0 0 0 0 0 0 0 0 0 0 0 0 0 0 0 0 0.25 0"/>
<feBlend mode="normal" in2="BackgroundImageFix" result="effect1_dropShadow"/>
<feBlend mode="normal" in="SourceGraphic" in2="effect1_dropShadow" result="shape"/>
</filter>
</defs>
</svg>
